HIERARCHY
ROOT hip
{
	OFFSET 0.000000 0.000000 0.000000 
	CHANNELS 6 Xposition Yposition Zposition Xrotation Zrotation Yrotation
	JOINT abdomen
	{
		OFFSET 0.000000 3.402643 0.000000 
		CHANNELS 3 Xrotation Zrotation Yrotation
		JOINT chest
		{
			OFFSET 0.000000 8.438565 -0.680529 
			CHANNELS 3 Xrotation Zrotation Yrotation
			JOINT neck
			{
				OFFSET 0.000000 10.207942 -0.272212 
				CHANNELS 3 Xrotation Zrotation Yrotation
				JOINT head
				{
					OFFSET 0.000000 3.130431 0.000000 
					CHANNELS 3 Xrotation Zrotation Yrotation
					End Site
					{
						OFFSET 0.000000 3.130435 0.000000 
					}
				}
			}
			JOINT lCollar
			{
				OFFSET 3.470700 6.669187 -0.816635 
				CHANNELS 3 Yrotation Zrotation Xrotation
				JOINT lShldr
				{
					OFFSET 3.198488 0.000000 0.000000 
					CHANNELS 3 Zrotation Yrotation Xrotation
					JOINT lForeArm
					{
						OFFSET 10.139888 0.000000 0.000000 
						CHANNELS 3 Yrotation Zrotation Xrotation
						JOINT lHand
						{
							OFFSET 8.370511 0.000000 0.000000 
							CHANNELS 3 Zrotation Yrotation Xrotation
							End Site
							{
								OFFSET 4.083176 0.000000 0.000000 
							}
						}
					}
				}
			}
			JOINT rCollar
			{
				OFFSET -3.470700 6.669187 -0.816635 
				CHANNELS 3 Yrotation Zrotation Xrotation
				JOINT rShldr
				{
					OFFSET -3.198488 0.000000 0.000000 
					CHANNELS 3 Zrotation Yrotation Xrotation
					JOINT rForeArm
					{
						OFFSET -10.139888 0.000000 0.000000 
						CHANNELS 3 Yrotation Zrotation Xrotation
						JOINT rHand
						{
							OFFSET -8.370511 0.000000 0.000000 
							CHANNELS 3 Zrotation Yrotation Xrotation
							End Site
							{
								OFFSET -4.083176 0.000000 0.000000 
							}
						}
					}
				}
			}
		}
	}
	JOINT lThigh
	{
		OFFSET 5.308129 -1.633274 1.361059 
		CHANNELS 3 Xrotation Zrotation Yrotation
		JOINT lShin
		{
			OFFSET -2.041588 -20.007561 0.000000 
			CHANNELS 3 Xrotation Zrotation Yrotation
			JOINT lFoot
			{
				OFFSET 0.000000 -19.190928 -1.224953 
				CHANNELS 3 Xrotation Yrotation Zrotation
				End Site
				{
					OFFSET 0.000000 -2.449906 4.627600 
				}
			}
		}
	}
	JOINT rThigh
	{
		OFFSET -5.308129 -1.633274 1.361059 
		CHANNELS 3 Xrotation Zrotation Yrotation
		JOINT rShin
		{
			OFFSET 2.041588 -20.007561 0.000000 
			CHANNELS 3 Xrotation Zrotation Yrotation
			JOINT rFoot
			{
				OFFSET 0.000000 -19.190928 -1.224953 
				CHANNELS 3 Xrotation Yrotation Zrotation
				End Site
				{
					OFFSET 0.000000 -2.449906 4.627600 
				}
			}
		}
	}
}
MOTION
Frames: 8
Frame Time: 0.016667
-0.135002 44.029179 -1.145244 10.732400 -2.207030 -8.828130 -35.532799 -4.269610 4.553090 39.121101 -4.765630 0.732422 30.606300 -8.656350 14.989000 4.619140 5.126950 8.311420 2.000000 -2.000000 0.000000 -84.535797 -26.458300 -158.100006 56.693100 1.141870 0.155407 -1.395630 3.361630 -147.289001 -2.000000 2.000000 0.000000 -112.484001 157.951004 -6.184840 -127.680000 -1.300160 0.125880 1.278150 -3.254310 157.863998 -29.371555 1.264079 8.945808 55.740891 1.719132 8.012088 -8.294243 5.950301 1.821304 -18.987497 11.302197 14.712861 22.367496 -3.342982 -4.410519 -10.193415 -11.000654 -3.153211 
-0.080109 44.191040 -1.392288 10.869100 -1.777340 -9.072270 -35.609100 -4.222790 4.566830 39.160198 -4.697270 0.741388 30.644899 -9.108490 15.179700 4.687500 5.048830 8.457030 2.000000 -2.000000 0.000000 -83.902100 -24.843399 -159.434998 58.245800 1.141870 0.155407 -1.395630 3.361630 -147.141998 -2.000000 2.000000 0.000000 -110.817001 158.335999 -5.429230 -127.210999 -1.300160 0.125880 1.278150 -3.254310 157.464005 -28.314779 0.808196 9.236601 55.560997 1.774020 7.967811 -7.668825 7.459160 2.209158 -18.987783 10.850845 15.315478 21.449516 -3.307904 -4.296484 -9.312416 -11.283395 -3.105380 
-0.012772 44.360466 -1.640881 11.123000 -1.152340 -9.355670 -35.704498 -4.195440 4.639980 39.160198 -4.580080 0.761719 30.605700 -9.382250 15.297700 4.716800 5.019530 8.545780 2.000000 -2.000000 0.000000 -83.155502 -23.322300 -160.897995 58.841499 1.141870 0.155407 -1.395620 3.351860 -147.669998 -2.000000 2.000000 0.000000 -108.612999 158.751999 -3.339950 -126.772003 -1.300160 0.125880 1.278150 -3.254310 158.069000 -27.231230 0.062711 8.979199 54.227924 1.965890 7.830072 -7.590114 8.537796 2.602179 -19.172962 10.177975 16.008720 20.462685 -3.267555 -4.182751 -8.419312 -11.434188 -3.033476 
0.072755 44.526615 -1.906954 11.464800 -0.585938 -9.589940 -35.789799 -4.170410 4.734130 39.101601 -4.541020 0.819539 30.570000 -9.590790 15.306800 4.755860 5.000000 8.564450 2.000000 -2.000000 0.000000 -82.528603 -21.942200 -162.936996 58.831799 1.141870 0.155407 -1.395620 3.351860 -147.835999 -2.000000 2.000000 0.000000 -106.139999 159.283997 -0.479092 -126.126999 -1.299580 0.135626 1.287930 -3.254300 159.416000 -26.203142 -0.666232 8.303643 52.173286 2.234551 7.604486 -7.616953 9.945126 3.090010 -19.345606 9.559463 16.779100 19.223991 -3.186700 -4.056384 -7.332224 -11.746140 -3.041317 
0.171925 44.690369 -2.186125 11.875000 -0.068359 -9.785170 -35.873501 -4.113430 4.858730 38.994099 -4.560550 0.887896 30.536800 -9.738330 15.236100 4.804690 4.980470 8.545770 2.000000 -2.000000 0.000000 -82.014397 -20.644300 -165.393997 58.382500 1.141870 0.155407 -1.395620 3.351860 -147.718994 -2.000000 2.000000 0.000000 -103.492996 159.975998 2.924160 -125.335999 -1.299580 0.135626 1.287930 -3.254300 161.330002 -25.239889 -1.386501 7.328631 49.660587 2.555348 7.291901 -7.726785 11.564948 3.690176 -19.488815 8.906758 17.598097 17.764740 -3.057906 -3.927995 -6.091931 -12.176345 -3.036585 
0.295484 44.846565 -2.478430 12.363300 0.419922 -9.999930 -35.833698 -4.199320 5.047230 39.082001 -4.853520 0.946440 30.220501 -9.758640 15.103400 4.755860 4.931640 8.487170 2.000000 -2.000000 0.000000 -81.338303 -19.976000 -168.330002 56.868900 1.141870 0.155407 -1.395630 3.361630 -147.307999 -2.000000 2.000000 0.000000 -100.427002 160.369995 7.038110 -124.056999 -1.289830 0.135047 1.297710 -3.254290 164.024994 -24.291395 -2.061901 6.055563 46.299618 2.912656 6.950821 -7.436753 13.784091 4.335122 -19.750166 8.285469 18.523785 16.364069 -2.921084 -3.761473 -5.014081 -12.729619 -3.118030 
0.426086 44.993450 -2.779361 12.919900 0.898438 -10.175800 -35.793900 -4.279500 5.223170 39.179699 -5.146480 0.995218 29.885300 -9.734660 14.937600 4.687500 4.902340 8.398440 2.000000 -2.000000 0.000000 -80.724098 -19.466299 -171.386993 55.003899 1.132700 0.145084 -1.395630 3.361630 -146.809998 -2.000000 2.000000 0.000000 82.535500 19.205099 -168.714996 -122.542999 -1.289830 0.135047 1.307500 -3.264050 166.837006 -23.218332 -2.693740 4.675162 42.570877 3.214096 6.528374 -7.060988 15.970377 4.987235 -19.933460 7.584871 19.494034 14.557582 -2.675631 -3.641249 -3.791080 -13.294252 -3.259100 
0.574538 45.092194 -3.118926 13.750000 1.298830 -10.136700 -35.889599 -4.264740 5.290600 39.101601 -5.205080 1.034270 29.751699 -9.511780 14.762900 4.667970 4.990230 8.272330 2.000000 -2.000000 0.000000 99.547096 -160.582001 5.167390 52.142601 1.132700 0.145084 -1.395630 3.361630 -146.078003 -2.000000 2.000000 0.000000 84.684303 19.162600 -164.104004 -120.130997 -1.289830 0.135047 1.307500 -3.264050 169.591003 -22.609606 -3.139887 3.053094 38.767399 3.485003 6.071663 -6.791210 17.432962 5.451681 -20.546579 6.955150 20.301451 12.976570 -2.443008 -3.516208 -2.727759 -13.882013 -3.427724 
